<svg preserveAspectRatio="none" overflow="visible" style="display: block;" width="20" height="20" viewBox="0 0 20 20" fill="none" xmlns="http://www.w3.org/2000/svg">
<g id="Icon/locate" clip-path="url(#clip0_0_30)">
<path id="Vector" d="M10 15.8333C13.2217 15.8333 15.8333 13.2217 15.8333 10C15.8333 6.77834 13.2217 4.16667 10 4.16667C6.77834 4.16667 4.16667 6.77834 4.16667 10C4.16667 13.2217 6.77834 15.8333 10 15.8333Z" stroke="#007F78" stroke-width="1.575" stroke-linecap="round" stroke-linejoin="round"/>
<path id="Vector_2" d="M10 11.6667C10.9205 11.6667 11.6667 10.9205 11.6667 10C11.6667 9.07953 10.9205 8.33333 10 8.33333C9.07953 8.33333 8.33333 9.07953 8.33333 10C8.33333 10.9205 9.07953 11.6667 10 11.6667Z" stroke="#007F78" stroke-width="1.575" stroke-linecap="round" stroke-linejoin="round"/>
<path id="Vector_3" d="M10 1.66667V4.16667M10 15.8333V18.3333M1.66667 10H4.16667M15.8333 10H18.3333" stroke="#007F78" stroke-width="1.575" stroke-linecap="round" stroke-linejoin="round"/>
</g>
<defs>
<clipPath id="clip0_0_30">
<rect width="20" height="20" fill="white"/>
</clipPath>
</defs>
</svg>
