<svg preserveAspectRatio="none" overflow="visible" style="display: block;" width="20" height="20" viewBox="0 0 20 20" fill="none" xmlns="http://www.w3.org/2000/svg">
<g id="Icon/route">
<path id="Vector" d="M5 5.83333C5.92047 5.83333 6.66667 5.08714 6.66667 4.16667C6.66667 3.24619 5.92047 2.5 5 2.5C4.07953 2.5 3.33333 3.24619 3.33333 4.16667C3.33333 5.08714 4.07953 5.83333 5 5.83333Z" stroke="#007F78" stroke-width="1.5" stroke-linecap="round" stroke-linejoin="round"/>
<path id="Vector_2" d="M15 17.5C15.9205 17.5 16.6667 16.7538 16.6667 15.8333C16.6667 14.9129 15.9205 14.1667 15 14.1667C14.0795 14.1667 13.3333 14.9129 13.3333 15.8333C13.3333 16.7538 14.0795 17.5 15 17.5Z" stroke="#007F78" stroke-width="1.5" stroke-linecap="round" stroke-linejoin="round"/>
<path id="Vector_3" d="M6.66667 4.16667H14.1667C15.0507 4.16667 15.8986 4.51786 16.5237 5.14298C17.1488 5.7681 17.5 6.61595 17.5 7.5C17.5 8.38406 17.1488 9.2319 16.5237 9.85702C15.8986 10.4821 15.0507 10.8333 14.1667 10.8333H5.83333C5.17029 10.8333 4.53441 11.0967 4.06557 11.5656C3.59673 12.0344 3.33333 12.6703 3.33333 13.3333C3.33333 13.9964 3.59673 14.6323 4.06557 15.1011C4.53441 15.5699 5.17029 15.8333 5.83333 15.8333H13.3333" stroke="#007F78" stroke-width="1.5" stroke-linecap="round" stroke-linejoin="round"/>
</g>
</svg>
