<svg preserveAspectRatio="none" overflow="visible" style="display: block;" width="22" height="22" viewBox="0 0 22 22" fill="none" xmlns="http://www.w3.org/2000/svg">
<g id="Icon/rain">
<path id="Vector" d="M5.5 13.75H16.5C17.3509 13.7743 18.1766 13.4596 18.7955 12.8751C19.4144 12.2906 19.7757 11.4842 19.8 10.6333C19.8243 9.78243 19.5096 8.95672 18.9251 8.33785C18.3406 7.71898 17.5342 7.35765 16.6833 7.33333C16.5295 6.08079 15.9496 4.91925 15.0409 4.04355C14.1323 3.16785 12.9501 2.63126 11.6927 2.52379C10.4354 2.41632 9.17928 2.74452 8.13518 3.45331C7.09109 4.16211 6.3225 5.2084 5.95833 6.41667C4.98587 6.35589 4.0291 6.68391 3.29849 7.32856C2.56788 7.97322 2.12328 8.88171 2.0625 9.85417C2.00172 10.8266 2.32974 11.7834 2.9744 12.514C3.61905 13.2446 4.52754 13.6892 5.5 13.75Z" stroke="#4F94C4" stroke-width="1.65" stroke-linecap="round" stroke-linejoin="round"/>
<path id="Vector_2" d="M7.33333 16.5L6.41667 19.25M11 16.5L10.0833 19.25M14.6667 16.5L13.75 19.25" stroke="#4F94C4" stroke-width="1.65" stroke-linecap="round" stroke-linejoin="round"/>
</g>
</svg>
